<svg width="34" height="20" viewBox="0 0 34 20" fill="none" xmlns="http://www.w3.org/2000/svg">
<path d="M13.3594 1.91016H13.6523C13.8281 1.91016 13.9219 1.99219 13.9219 2.19141V2.32031C13.9219 2.8125 14.25 3.14062 14.7422 3.14062H19.0781C19.5586 3.14062 19.8633 2.8125 19.8633 2.32031V2.19141C19.8633 1.99219 19.957 1.91016 20.1562 1.91016H20.4492V0.9375H13.3594V1.91016ZM0 17.7539C0 18.4922 0.597656 19.0898 1.32422 19.0898H32.4727C33.1992 19.0898 33.7969 18.4922 33.7969 17.7539C33.7969 17.0156 33.1992 16.418 32.4727 16.418H29.9062V2.50781C29.9062 0.867188 29.0273 0.0234375 27.3984 0.0234375H6.39844C4.85156 0.0234375 3.89062 0.867188 3.89062 2.50781V16.418H1.32422C0.597656 16.418 0 17.0156 0 17.7539ZM5.77734 16.418V3.03516C5.77734 2.28516 6.15234 1.91016 6.90234 1.91016H26.8945C27.6445 1.91016 28.0195 2.28516 28.0195 3.03516V16.418H5.77734Z" fill="black" fill-opacity="0.85"/>
</svg>
